<svg width="134" height="40" fill="none" xmlns="http://www.w3.org/2000/svg">
  <path fill-rule="evenodd" clip-rule="evenodd" d="M27.1 0v12.92A13.55 13.55 0 0 1 26.45 40H12.9V27.1H0V0h27.1ZM2.2 1.3l11.35 11.34L24.89 1.29H2.2Zm23.62.9v10.7H15.1L25.8 2.2Zm-.01 12H14.2l-.02 11.6h11.62V14.2ZM1.29 25.8V2.2L12.9 13.82v12L1.3 25.8Zm12.9 12.9h12.25a12.27 12.27 0 0 0 .65-24.49V27.1h-12.9v11.6Z" fill="url(#paint0_linear_1661_3738)"/>
  <path d="M53.23 15.67v-8.2h1.25l.15.96a2.8 2.8 0 0 1 2.4-1.2c1.1 0 1.96.44 2.4 1.3.63-1 1.68-1.3 2.67-1.3 1.67 0 2.77 1 2.77 2.95v5.49h-1.5v-5.38c0-1.24-.54-1.76-1.6-1.76-1.22 0-1.98 1.02-1.98 2.13v5h-1.51V10.3c0-1.26-.55-1.76-1.6-1.76a2.02 2.02 0 0 0-1.97 2.1v5.04h-1.48Z" fill="#fff"/>
  <path fill-rule="evenodd" clip-rule="evenodd" d="M74.63 11.57c0-2.95-1.8-4.34-4.03-4.34-2.22 0-4.05 1.4-4.05 4.34 0 2.83 1.72 4.33 4.03 4.33 2.32 0 4.05-1.46 4.05-4.33Zm-1.57 0c0 2.03-1 3.1-2.44 3.1-1.42 0-2.5-1.07-2.5-3.1 0-2.04 1.09-3.11 2.48-3.11 1.4 0 2.46 1.02 2.46 3.1Z" fill="#fff"/>
  <path d="M76.37 15.67v-8.2h1.24l.16.96a2.8 2.8 0 0 1 2.4-1.2c1.09 0 1.96.44 2.4 1.3.63-1 1.67-1.3 2.67-1.3 1.67 0 2.77 1 2.77 2.95v5.49H86.5v-5.38c0-1.24-.53-1.76-1.6-1.76-1.21 0-1.97 1.02-1.97 2.13v5h-1.51V10.3c0-1.26-.56-1.76-1.6-1.76a2.02 2.02 0 0 0-1.97 2.1v5.04h-1.48Z" fill="#fff"/>
  <path fill-rule="evenodd" clip-rule="evenodd" d="M93.7 15.9c1.97 0 3.27-1.1 3.68-2.6h-1.64a2 2 0 0 1-1.99 1.33c-1.37 0-2.4-.84-2.52-2.73h6.24c0-3.31-1.58-4.67-3.85-4.67s-3.93 1.45-3.93 4.34c0 2.88 1.68 4.33 4.01 4.33Zm2.23-5.2h-4.64c.24-1.51 1.15-2.25 2.37-2.25 1.26 0 2.16.72 2.27 2.25Z" fill="#fff"/>
  <path d="M99.28 15.67v-8.2h1.25l.18 1.04c.57-.81 1.5-1.29 2.49-1.28 1.78 0 2.9 1.1 2.9 3.1v5.33h-1.51v-5.34c0-1.23-.63-1.8-1.75-1.8a2 2 0 0 0-2.03 2.07v5.07h-1.53ZM111.87 15.73a4 4 0 0 1-1.11.16c-1.45 0-2.2-.91-2.2-2.27V8.76h-1.2v-1.3h1.2l.1-1.96h1.42v1.97h1.76v1.29h-1.76v4.9c0 .62.3.92.87.92.31 0 .62-.04.92-.13v1.28ZM114.73 7.47v5.38c0 1.2.64 1.76 1.7 1.76 1.37 0 2.02-1.02 2.02-2.13V7.47h1.51v8.2h-1.25l-.17-.95a2.96 2.96 0 0 1-2.46 1.18c-1.68 0-2.86-1-2.86-3.09V7.47h1.5ZM122.17 15.67v-8.2h1.24l.16.96a2.8 2.8 0 0 1 2.4-1.2c1.09 0 1.95.44 2.4 1.3.63-1 1.67-1.3 2.67-1.3 1.67 0 2.77 1 2.77 2.95v5.49h-1.51v-5.38c0-1.24-.54-1.76-1.6-1.76-1.22 0-1.97 1.02-1.97 2.13v5h-1.52V10.3c0-1.26-.55-1.76-1.6-1.76a2.02 2.02 0 0 0-1.97 2.1v5.04h-1.47Z" fill="#fff"/>
  <path fill-rule="evenodd" clip-rule="evenodd" d="m59.11 30.27.27 1.16h1.24V20.08h-1.51v4.19a3.09 3.09 0 0 0-2.63-1.28c-2.19 0-3.72 1.45-3.72 4.39 0 2.77 1.56 4.28 3.63 4.28a3.17 3.17 0 0 0 2.72-1.39Zm.08-2.84c0 1.7-.92 2.93-2.48 2.93v.01c-1.37 0-2.38-1-2.38-2.96 0-2.14.95-3.12 2.38-3.12 1.51 0 2.48 1.13 2.48 3.14ZM66.38 31.67c1.96 0 3.26-1.1 3.67-2.6l-1.65-.02a2 2 0 0 1-1.99 1.34c-1.37 0-2.4-.84-2.52-2.73h6.24c0-3.31-1.56-4.66-3.83-4.66s-3.94 1.45-3.94 4.33c0 2.89 1.68 4.34 4.02 4.34Zm2.22-5.2h-4.64c.24-1.52 1.15-2.26 2.37-2.26 1.26 0 2.16.73 2.27 2.26Z" fill="#fff"/>
  <path d="M74.37 27.7c-1.93-.43-2.7-1.16-2.7-2.37 0-1.4 1.12-2.34 3.18-2.34 1.83 0 3.1.9 3.36 2.4h-1.54c-.18-.75-.8-1.2-1.83-1.2-1.14 0-1.64.43-1.64 1 0 .63.33.91 1.9 1.26 1.91.43 3.17.96 3.17 2.65 0 1.5-1.24 2.57-3.42 2.57-2.04 0-3.38-1.01-3.52-2.59h1.54c.17.98.85 1.39 2 1.39 1.23 0 1.87-.55 1.87-1.26 0-.97-.9-1.19-2.37-1.52Z" fill="#fff"/>
  <path fill-rule="evenodd" clip-rule="evenodd" d="M79.91 20.08v1.79h1.7v-1.79h-1.7Zm.1 3.15v8.2h1.51v-8.2h-1.51ZM87.29 33.31c-1.2 0-1.9-.51-2.03-1.33h-1.63c.27 1.53 1.52 2.52 3.7 2.52 2.44 0 3.79-1.38 3.79-3.25v-8.02h-1.24l-.24 1.09a3.05 3.05 0 0 0-2.67-1.34c-2.22 0-3.72 1.58-3.72 4.15 0 2.61 1.7 4.05 3.63 4.05 1.26 0 2.17-.42 2.73-1.07v1.07c0 1.36-.8 2.13-2.32 2.13Zm2.4-6.1c0 1.66-.92 2.69-2.48 2.69h-.01c-1.3 0-2.37-1-2.37-2.73 0-1.96 1-2.88 2.38-2.88 1.46 0 2.48 1 2.48 2.93Z" fill="#fff"/>
  <path d="M93.33 31.43v-8.2h1.25l.17 1.04c.57-.8 1.5-1.28 2.5-1.28 1.77 0 2.9 1.1 2.9 3.1v5.33h-1.52v-5.34c0-1.23-.63-1.8-1.75-1.8a2 2 0 0 0-2.03 2.07v5.07h-1.52Z" fill="#fff"/>
  <defs>
    <linearGradient id="paint0_linear_1661_3738" x1="4.13" y1="33.6" x2="32.13" y2="5.6" gradientUnits="userSpaceOnUse">
        <stop stop-color="#DB1F2E">
            <animate attributeName="stop-color" values="#DB1F2E; #F26B1D; #F2990A; #73A321; #00A3B5; #0A78CC; #643ABD; #C233C4;" dur="1s" repeatCount="indefinite"></animate>
        </stop>
        <stop offset=".12" stop-color="#F26B1D">
            <animate attributeName="stop-color" values="#F26B1D;#F2990A;#73A321;#00A3B5;#0A78CC;#643ABD;#C233C4;#DB1F2E;" dur="1s" repeatCount="indefinite"></animate>
        </stop>
        <stop offset=".25" stop-color="#F2990A">
            <animate attributeName="stop-color" values="#F2990A;#73A321;#00A3B5;#0A78CC;#643ABD;#C233C4;#DB1F2E;#F26B1D;" dur="1s" repeatCount="indefinite"></animate>
        </stop>
        <stop offset=".4" stop-color="#73A321">
            <animate attributeName="stop-color" values="#73A321;#00A3B5;#0A78CC;#643ABD;#C233C4;#DB1F2E;#F26B1D;#F2990A;" dur="1s" repeatCount="indefinite"></animate>
        </stop>
        <stop offset=".52" stop-color="#00A3B5">
            <animate attributeName="stop-color" values="#00A3B5;#0A78CC;#643ABD;#C233C4;#DB1F2E;#F26B1D;#F2990A;#73A321;" dur="1s" repeatCount="indefinite"></animate>
        </stop>
        <stop offset=".67" stop-color="#0A78CC">
            <animate attributeName="stop-color" values="#0A78CC;#643ABD;#C233C4;#DB1F2E;#F26B1D;#F2990A;#73A321;#00A3B5;" dur="1s" repeatCount="indefinite"></animate>
        </stop>
        <stop offset=".83" stop-color="#643ABD">
            <animate attributeName="stop-color" values="#643ABD;#C233C4;#DB1F2E;#F26B1D;#F2990A;#73A321;#00A3B5;#0A78CC;" dur="1s" repeatCount="indefinite"></animate>
        </stop>
        <stop offset="1" stop-color="#C233C4">
            <animate attributeName="stop-color" values="#C233C4;#DB1F2E;#F26B1D;#F2990A;#73A321;#00A3B5;#0A78CC;#643ABD;" dur="1s" repeatCount="indefinite"></animate>
        </stop>
    </linearGradient>
  </defs>
</svg>
